<?xml version="1.0" encoding="utf-8"?>
<!-- Generator: Adobe Illustrator 24.2.1, SVG Export Plug-In . SVG Version: 6.00 Build 0)  -->
<svg version="1.1" xmlns="http://www.w3.org/2000/svg" xmlns:xlink="http://www.w3.org/1999/xlink" x="0px" y="0px"
	 viewBox="0 0 710.7 480.7" style="enable-background:new 0 0 710.7 480.7;" xml:space="preserve">
<style type="text/css">
	.st0{enable-background:new    ;}
</style>
<g>
	<path d="M204.5,143.3c-5.7,0-10.9-3.5-12.6-8.9c-4.2-13.6-8.4-27.1-12.5-40.7c-4.2-13.6-8.4-27.3-12.6-40.9
		c-0.9-2.7-0.5-5.8,0.9-8.5c1.9-3.7,5.6-6.5,10-7.8c9.7-2.8,20.1-5.4,32.6-8.3c4.4-1,8.9-0.3,12.3,1.9c2.7,1.7,4.5,4.3,5.1,7.2
		l17.1,83.7c1.3,6.7-3.1,13.4-9.9,15c-8.9,2-18,4.4-27.1,6.9C206.8,143.2,205.6,143.3,204.5,143.3z M214.3,28.8
		c-1.2,0-2.5,0.1-3.7,0.4c-12.5,2.9-22.9,5.5-32.6,8.3c-4.2,1.2-7.6,3.9-9.4,7.3c-1.3,2.5-1.7,5.3-0.9,7.8
		c4.2,13.6,8.4,27.3,12.6,40.9c4.2,13.6,8.3,27.1,12.5,40.7l0,0c1.8,5.9,8.4,9.4,14.8,7.8c9.1-2.5,18.2-4.9,27.1-6.9
		c6.3-1.4,10.4-7.6,9.1-13.8l-17.1-83.7c-0.5-2.6-2.2-4.9-4.6-6.5C219.9,29.5,217.2,28.8,214.3,28.8z"/>
</g>
<g>
	<path d="M258.5,130.8c-6,0-11.4-4.2-12.6-10.1v0L229.1,37c-0.6-2.9,0.1-6,1.9-8.6c2.3-3.3,6.1-5.7,10.5-6.5
		c11.9-2.1,22.8-3.7,33.1-5c4.5-0.6,8.8,0.6,12,3.1c2.5,2,4,4.7,4.2,7.6l8.7,84.9c0.6,6.9-4.4,13-11.3,13.8
		c-9.2,1.1-18.5,2.5-27.5,4.2C260,130.7,259.2,130.8,258.5,130.8z M276.9,17.8c-0.7,0-1.4,0-2.1,0.1c-10.3,1.3-21.2,2.9-33.1,5
		c-4.1,0.7-7.7,2.9-9.8,6c-1.7,2.4-2.3,5.2-1.8,7.9l16.8,83.7c1.2,6.2,7.4,10.3,13.7,9.1c9-1.7,18.3-3.1,27.5-4.2
		c6.4-0.8,11-6.4,10.5-12.8l-8.7-84.9c-0.2-2.6-1.6-5.1-3.9-6.9C283.6,18.8,280.3,17.8,276.9,17.8z"/>
</g>
<g>
	<path d="M313.6,123.8c-6.7,0-12.4-4.9-12.9-11.4c-2.7-27.2-5.6-56.2-8.3-85c-0.3-2.9,0.6-5.9,2.7-8.3c2.6-3.1,6.7-5.1,11.2-5.4
		c12-0.9,22.9-1.4,33.3-1.7c4.5-0.1,8.7,1.4,11.6,4.3c2.3,2.2,3.5,5.1,3.5,8c0,14.2,0.1,28.4,0.1,42.6c0,14.3,0,28.5,0.1,42.8
		c0,6.8-5.6,12.5-12.6,12.7c-8.7,0.2-17.8,0.6-27.7,1.4C314.3,123.8,314,123.8,313.6,123.8z M340,13c-0.1,0-0.3,0-0.4,0
		c-10.4,0.3-21.3,0.8-33.3,1.7c-4.2,0.3-8.1,2.2-10.5,5.1c-1.9,2.2-2.7,4.9-2.5,7.6c2.8,28.8,5.6,57.8,8.3,85l0,0
		c0.6,6.2,6.3,10.9,12.9,10.4c9.9-0.8,19-1.2,27.7-1.4c6.4-0.2,11.6-5.4,11.6-11.7c-0.1-14.3-0.1-28.5-0.1-42.8
		c0-14.2,0-28.4-0.1-42.6c0-2.7-1.2-5.3-3.2-7.3C347.8,14.4,344.1,13,340,13z"/>
</g>
<g>
	<path d="M397.3,123.9c-0.3,0-0.7,0-1,0c-9.7-0.7-19-1.2-27.7-1.4c-7.1-0.2-12.7-5.8-12.7-12.7v0c0-14.2,0.1-28.5,0.1-42.7
		c0-14.2,0-28.5,0.1-42.7c0-2.9,1.3-5.8,3.5-8c2.9-2.8,7.1-4.4,11.6-4.3c12.5,0.3,23.4,0.9,33.3,1.7c4.5,0.3,8.6,2.3,11.2,5.4
		c2,2.4,3,5.4,2.7,8.3c-2.7,27.1-5.5,56-8.3,85C409.4,119.1,403.9,123.9,397.3,123.9z M356.9,109.8c0,6.4,5.1,11.5,11.7,11.7
		c8.6,0.2,18,0.7,27.7,1.4c6.5,0.5,12.1-4.1,12.8-10.5c2.8-28.9,5.6-57.9,8.3-85c0.3-2.7-0.6-5.3-2.5-7.6c-2.4-2.9-6.3-4.8-10.5-5.1
		c-10-0.8-20.8-1.4-33.3-1.7c-4.2-0.1-8.1,1.3-10.8,4c-2.1,2-3.2,4.6-3.2,7.3c0,14.3-0.1,28.5-0.1,42.7
		C357,81.3,357,95.6,356.9,109.8L356.9,109.8z"/>
</g>
<g>
	<path d="M452.2,130.8c-0.8,0-1.6-0.1-2.4-0.2c-9-1.6-18.2-3-27.5-4.2c-6.9-0.8-11.9-6.9-11.2-13.8l0,0l8.7-84.9
		c0.3-2.9,1.8-5.6,4.2-7.6c3.2-2.6,7.5-3.7,12-3.1c12.3,1.6,23.1,3.2,33.1,5c4.5,0.8,8.3,3.2,10.6,6.6c1.8,2.6,2.4,5.7,1.8,8.5
		l-16.8,83.7C463.6,126.7,458.3,130.8,452.2,130.8z M412.1,112.6c-0.6,6.3,4.1,12,10.4,12.8c9.3,1.2,18.6,2.6,27.5,4.2
		c6.5,1.2,12.6-2.8,13.8-9.1l16.8-83.7c0.6-2.6,0-5.4-1.6-7.8c-2.1-3.2-5.8-5.4-10-6.1c-10-1.8-20.8-3.4-33.1-5
		c-4.2-0.5-8.3,0.5-11.3,2.9c-2.3,1.8-3.6,4.3-3.9,6.9L412.1,112.6z"/>
</g>
<g>
	<path d="M506.6,143.2c-1.2,0-2.4-0.2-3.6-0.5c-8-2.2-17.6-4.8-27.1-6.9c-6.9-1.5-11.3-8.1-10-14.9v0L483,37.2
		c0.6-2.9,2.4-5.4,5-7.2c3.4-2.2,7.9-2.9,12.4-1.9c10.4,2.4,21.3,5.2,32.6,8.3c4.4,1.2,8,4,9.9,7.6c1.5,2.8,1.9,5.9,1,8.8
		c-4.2,13.7-8.4,27.4-12.6,41c-4.2,13.5-8.3,27-12.5,40.6C517.2,139.7,512.1,143.2,506.6,143.2z M466.9,121.1
		c-1.2,6.2,2.9,12.4,9.2,13.7c9.5,2.1,19.1,4.7,27.1,6.9c6.3,1.7,12.8-1.6,14.7-7.7c4.2-13.5,8.3-27,12.5-40.6
		c4.2-13.7,8.4-27.4,12.6-41c0.8-2.6,0.5-5.4-0.9-8c-1.8-3.3-5.2-5.9-9.3-7.1c-11.3-3.1-22.2-5.9-32.6-8.3
		c-4.2-0.9-8.4-0.3-11.6,1.8c-2.4,1.6-4.1,3.9-4.6,6.5L466.9,121.1z"/>
</g>
<g>
	<path d="M94.9,473.8c-1.6,0-3.2-0.5-4.6-1.3c-2.2-1.4-3.8-3.8-4.3-6.6c-2.7-13.1-4.8-25.2-6.5-37c-0.9-5.6,2.6-10.9,7.6-11.8
		c29.6-5.5,60.2-11.2,90.2-16.7c4.9-0.9,9.7,2.1,10.7,6.9c2.2,10.9,4.5,20.9,7,30.7c1.2,4.6-1.9,9.4-6.9,10.8l0,0
		c-15.1,4.1-30.3,8.2-45.4,12.4c-15.2,4.1-30.3,8.2-45.5,12.3C96.5,473.7,95.7,473.8,94.9,473.8z M179.1,401.2c-0.5,0-1.1,0-1.6,0.2
		c-30,5.5-60.6,11.2-90.2,16.7c-4.5,0.8-7.6,5.5-6.8,10.6c1.7,11.8,3.8,23.9,6.5,37c0.5,2.5,1.9,4.7,3.9,5.9c1.8,1.2,4,1.5,6.1,0.9
		c15.1-4.1,30.3-8.2,45.4-12.4c15.2-4.1,30.3-8.2,45.5-12.3c4.4-1.2,7.2-5.5,6.1-9.6c-2.5-9.8-4.8-19.8-7-30.7
		C186.3,403.8,182.9,401.2,179.1,401.2z"/>
</g>
<g>
	<path d="M85.4,415.9c-1.7,0-3.4-0.5-4.8-1.6c-2.2-1.6-3.7-4.2-4.1-7.1c-1.5-12.4-2.7-25-3.6-37.3c-0.4-5.7,3.3-10.6,8.3-11
		c28.5-2.8,58.9-5.8,88.9-8.6c4.9-0.4,9.3,3,9.9,7.7c1.4,11.3,2.9,21.5,4.6,31.1c0.8,4.7-2.5,9.3-7.5,10.3l0,0l-12,2.2
		c-25.6,4.7-52.1,9.5-78.2,14.2C86.4,415.9,85.9,415.9,85.4,415.9z M170.9,351.3c-0.2,0-0.5,0-0.7,0c-30,2.8-60.4,5.8-88.9,8.6
		c-4.4,0.4-7.7,4.9-7.4,10c0.9,12.3,2.1,24.9,3.6,37.3c0.3,2.6,1.7,5,3.7,6.4c1.7,1.2,3.6,1.6,5.5,1.3c26.1-4.7,52.6-9.5,78.2-14.2
		l12-2.2c4.4-0.9,7.4-4.9,6.7-9.1c-1.7-9.6-3.2-19.8-4.6-31.1C178.5,354.2,175,351.3,170.9,351.3z"/>
</g>
<g>
	<path d="M80.5,357.7c-2,0-3.9-0.7-5.5-2.1c-2-1.8-3.2-4.4-3.3-7.3c-0.5-12.4-0.7-24.9-0.6-37.3c0-5.6,4-10.2,8.9-10.3
		c14.4-0.1,28.9-0.3,43.3-0.4c14.5-0.1,29.1-0.3,43.6-0.4c4.8,0,8.8,3.8,9,8.6c0.4,10.5,1.1,21.1,2.1,31.4c0.4,4.8-3.2,9.1-8.1,9.5
		c-29.1,2.8-59.2,5.6-88.8,8.3C81,357.7,80.8,357.7,80.5,357.7z M167,300.9c-14.5,0.2-29,0.3-43.6,0.4c-14.4,0.1-28.9,0.2-43.3,0.4
		c-4.4,0.1-7.9,4.3-7.9,9.3c-0.1,12.4,0.1,24.9,0.6,37.3c0.1,2.6,1.2,5,2.9,6.6c1.5,1.3,3.4,2,5.4,1.8c29.6-2.7,59.7-5.5,88.8-8.3h0
		c4.3-0.4,7.5-4.2,7.1-8.5c-1-10.3-1.7-20.9-2.1-31.4C174.8,304.2,171.3,300.9,167,300.9z"/>
</g>
<g>
	<path d="M80.1,299.6c-2.1,0-4.1-0.9-5.6-2.5c-1.9-1.9-2.9-4.8-2.8-7.8c0.6-13.9,1.3-26.1,2.3-37.2c0.5-5.6,4.8-9.9,9.4-9.5
		c27.6,2.3,56.2,4.6,84.4,6.8c4.7,0.4,8.3,4.6,8.1,9.3c-0.4,9.9-0.5,20.2-0.4,31.5c0.1,2.4-0.8,4.6-2.4,6.2
		c-1.6,1.7-3.8,2.6-6.2,2.6l0,0c-14.5,0.1-29.1,0.2-43.6,0.3C108.9,299.4,94.5,299.5,80.1,299.6z M82.8,243.7
		c-3.9,0-7.3,3.7-7.8,8.6c-1,11.1-1.7,23.3-2.3,37.2c-0.1,2.7,0.8,5.3,2.5,7c1.3,1.4,3.1,2.1,4.9,2.1c14.4-0.1,28.8-0.2,43.2-0.2
		c14.5-0.1,29.1-0.2,43.6-0.3h0c2.1,0,4-0.8,5.4-2.3c1.4-1.5,2.2-3.4,2.2-5.5c-0.1-11.3,0-21.6,0.4-31.5c0.2-4.2-3-7.9-7.1-8.3
		c-28.2-2.2-56.8-4.5-84.4-6.8C83.2,243.7,83,243.7,82.8,243.7z"/>
</g>
<g>
	<path d="M168.5,248.6c-0.3,0-0.5,0-0.8,0l0,0c-13.5-1.2-27-2.3-40.4-3.4c-14.6-1.2-29.2-2.4-43.8-3.7c-2.1-0.2-3.9-1.2-5.3-3
		c-1.7-2.1-2.4-5-2-7.9c1.3-11.8,3.1-24.2,5.3-36.9c0.5-3.1,2.1-5.7,4.4-7.3c1.7-1.2,3.7-1.7,5.6-1.3c13.7,2.4,27.4,4.8,41.2,7.1
		c13.3,2.3,26.7,4.6,40,7c4.5,0.9,7.6,5.3,7.1,10c-1.3,11.3-2.2,21.6-2.9,31.5C176.5,245.3,172.9,248.6,168.5,248.6z M90.2,186
		c-1.3,0-2.6,0.4-3.8,1.2c-2,1.4-3.5,3.8-4,6.6c-2.2,12.7-4,25.1-5.3,36.9c-0.4,2.7,0.3,5.3,1.8,7.2c1.2,1.5,2.8,2.4,4.6,2.6
		c14.6,1.2,29.1,2.5,43.8,3.7c13.5,1.1,27,2.3,40.4,3.4h0c4.1,0.4,7.7-2.7,8.1-6.9c0.7-9.9,1.6-20.2,2.9-31.5c0.5-4.2-2.4-8.2-6.3-9
		c-13.4-2.3-26.7-4.6-40-7c-13.7-2.4-27.4-4.8-41.2-7.1C90.9,186,90.6,186,90.2,186z"/>
</g>
<g>
	<path d="M174,198.4c-0.4,0-0.9,0-1.3-0.1l0,0c-27-4.8-54-9.6-81.1-14.4c-1.9-0.3-3.5-1.4-4.7-3.1c-1.6-2.3-2.2-5.3-1.6-8.4
		c2.2-11.2,4.9-23.1,8.2-36.5c0.8-3,2.5-5.5,4.9-6.9c1.8-1,3.7-1.3,5.5-0.9c12.9,3.5,25.8,7,38.7,10.6c12.9,3.5,25.8,7,38.7,10.5
		c4.4,1.2,7,5.9,6.1,10.7c-2.3,11.2-4,22.1-5.4,31.3c-0.3,2.3-1.5,4.3-3.3,5.7C177.3,197.9,175.7,198.4,174,198.4z M172.9,197.3
		c1.8,0.3,3.7-0.1,5.2-1.3c1.6-1.2,2.6-3,2.9-5c1.4-9.2,3.1-20.1,5.4-31.3c0.8-4.2-1.5-8.5-5.3-9.5c-12.9-3.5-25.8-7-38.7-10.6
		c-12.9-3.5-25.8-7-38.7-10.5c-1.6-0.4-3.2-0.2-4.8,0.7c-2.1,1.2-3.7,3.5-4.4,6.3c-3.3,13.4-6,25.3-8.2,36.5c-0.5,2.8,0,5.6,1.4,7.6
		c1,1.5,2.5,2.4,4.1,2.7C118.9,187.7,145.9,192.5,172.9,197.3z"/>
</g>
<g>
	<path d="M615.7,474c-0.8,0-1.5-0.1-2.3-0.3c-15.1-4.1-30.3-8.2-45.5-12.3c-15.1-4.1-30.3-8.2-45.4-12.3l0,0c-5-1.4-8-6.2-6.9-10.8
		c2.5-9.8,4.8-19.8,7-30.7c0.9-4.7,5.7-7.8,10.7-6.9c30.4,5.6,60.8,11.2,90.2,16.7c5,0.8,8.5,6.1,7.6,11.8
		c-1.7,11.8-3.8,23.9-6.5,37c-0.5,2.8-2.1,5.2-4.3,6.6C618.9,473.6,617.3,474,615.7,474z M522.8,448.1c15.1,4.1,30.3,8.2,45.5,12.3
		c15.1,4.1,30.3,8.2,45.4,12.3c2.1,0.6,4.2,0.2,6.1-0.9c2-1.3,3.4-3.4,3.9-5.9c2.7-13.1,4.8-25.2,6.5-37c0.8-5.1-2.3-9.9-6.8-10.6
		c-29.4-5.5-59.9-11.1-90.2-16.7c-4.4-0.8-8.7,1.9-9.5,6.1c-2.2,10.9-4.5,21-7,30.7C515.6,442.5,518.4,446.8,522.8,448.1z"/>
</g>
<g>
	<path d="M625.3,416.3c-0.5,0-1,0-1.5-0.1c-26-4.7-52.5-9.5-78-14.2l-12.2-2.2c-5-1-8.3-5.6-7.5-10.3c1.7-9.6,3.2-19.8,4.6-31.1
		c0.6-4.8,5-8.1,9.9-7.7c29.8,2.8,60.2,5.8,88.9,8.6c5,0.4,8.7,5.4,8.3,11c-0.9,12.4-2.1,24.9-3.6,37.3c-0.4,2.9-1.9,5.5-4.1,7.1
		C628.7,415.7,627,416.3,625.3,416.3z M533.8,398.8L546,401c25.6,4.7,52,9.5,78,14.2c1.9,0.4,3.9-0.1,5.6-1.3c2-1.4,3.3-3.8,3.7-6.4
		c1.5-12.4,2.7-24.9,3.6-37.3c0.4-5-3-9.6-7.3-10c-28.7-2.8-59.2-5.8-88.9-8.6c-4.4-0.4-8.3,2.6-8.9,6.9
		c-1.4,11.3-2.9,21.5-4.6,31.1C526.3,393.8,529.3,397.9,533.8,398.8z"/>
</g>
<g>
	<path d="M630.1,358.1c-0.2,0-0.5,0-0.7,0c-29.9-2.7-59.8-5.6-88.8-8.3l0,0c-4.9-0.5-8.5-4.8-8-9.5c1-10.3,1.7-20.9,2.1-31.4
		c0.2-4.7,4.2-8.6,9-8.6c14.5,0.2,29.1,0.3,43.6,0.4c14.4,0.1,28.9,0.2,43.3,0.4c4.9,0.1,8.9,4.7,8.9,10.3c0.1,12.4-0.1,25-0.6,37.3
		c-0.1,2.9-1.3,5.6-3.3,7.3C634.1,357.3,632.1,358.1,630.1,358.1z M540.7,348.8c29,2.7,58.9,5.6,88.8,8.3c2,0.2,3.9-0.5,5.4-1.8
		c1.8-1.6,2.8-4,2.9-6.6c0.5-12.4,0.7-24.9,0.6-37.3c0-5-3.5-9.2-7.9-9.3c-14.4-0.1-28.9-0.3-43.3-0.4c-14.5-0.1-29.1-0.3-43.6-0.4
		c-4.2,0-7.8,3.4-8,7.6c-0.4,10.5-1.1,21.1-2.1,31.4C533.2,344.5,536.4,348.3,540.7,348.8z"/>
</g>
<g>
	<path d="M630.6,299.9c-14.5-0.1-28.9-0.2-43.4-0.2c-14.5-0.1-29-0.2-43.4-0.2h0c-2.4-0.1-4.5-1-6.2-2.7c-1.6-1.7-2.5-3.8-2.4-6.2
		c0.1-11.3,0-21.6-0.4-31.5c-0.2-4.7,3.4-8.9,8.1-9.3c28.3-2.2,56.8-4.5,84.4-6.8c4.7-0.4,8.9,3.8,9.4,9.5c1,11.1,1.7,23.3,2.3,37.2
		c0.1,3-0.9,5.8-2.8,7.8C634.7,299.1,632.7,299.9,630.6,299.9z M543.8,298.4c14.4,0.1,28.9,0.2,43.4,0.2c14.5,0.1,29,0.2,43.4,0.2
		c1.8,0,3.6-0.8,4.9-2.1c1.7-1.7,2.6-4.3,2.5-7c-0.6-13.9-1.3-26.1-2.3-37.2c-0.5-5.1-4.2-8.9-8.4-8.5c-27.6,2.3-56.1,4.6-84.4,6.8
		c-4.1,0.4-7.3,4.1-7.1,8.3c0.4,9.9,0.5,20.2,0.4,31.5c0,2,0.7,4,2.1,5.4C539.8,297.6,541.7,298.4,543.8,298.4z"/>
</g>
<g>
	<path d="M542.3,249c-4.4,0-8.1-3.4-8.5-7.9c-0.7-9.9-1.6-20.2-2.9-31.5c-0.5-4.8,2.6-9.2,7.1-10c13.5-2.3,27-4.7,40.4-7
		c13.6-2.4,27.2-4.7,40.8-7.1c1.9-0.4,3.9,0.1,5.6,1.3c2.3,1.6,3.9,4.2,4.4,7.3c2.2,12.7,4,25.1,5.3,36.9c0.4,2.9-0.4,5.8-2,7.9
		c-1.4,1.7-3.3,2.8-5.3,3c-14.5,1.2-29.1,2.5-43.6,3.7c-13.5,1.1-27,2.3-40.6,3.4l0,0C542.7,249,542.5,249,542.3,249z M620.5,186.3
		c-0.4,0-0.7,0-1.1,0.1c-13.6,2.4-27.2,4.7-40.8,7.1c-13.5,2.3-26.9,4.7-40.4,7c-3.9,0.7-6.8,4.8-6.3,9c1.3,11.3,2.2,21.6,2.9,31.5
		c0.4,4.2,3.9,7.2,8.1,6.9c13.5-1.2,27-2.3,40.6-3.4c14.6-1.2,29.1-2.4,43.6-3.7c1.8-0.2,3.4-1.1,4.6-2.6c1.5-1.9,2.2-4.5,1.8-7.2
		c-1.3-11.8-3.1-24.2-5.3-36.9c-0.5-2.8-1.9-5.2-4-6.6C623,186.8,621.8,186.3,620.5,186.3z"/>
</g>
<g>
	<path d="M536.7,198.6c-1.7,0-3.3-0.5-4.6-1.5c-1.8-1.3-3-3.4-3.3-5.7c-1.4-9.2-3.1-20.1-5.4-31.3c-1-4.8,1.7-9.5,6.1-10.7
		c12.9-3.5,25.8-7,38.8-10.6c12.9-3.5,25.8-7,38.6-10.5c1.8-0.5,3.8-0.2,5.5,0.9c2.4,1.4,4.1,3.9,4.9,6.9c3.3,13.4,6,25.4,8.2,36.5
		c0.6,3.1,0,6.1-1.6,8.4c-1.2,1.7-2.9,2.8-4.7,3.1c-26.4,4.7-52.7,9.3-79,14l-2.1,0.4C537.5,198.6,537.1,198.6,536.7,198.6z
		 M608.5,129.1c-0.5,0-1,0.1-1.5,0.2c-12.9,3.5-25.8,7-38.6,10.5c-12.9,3.5-25.8,7.1-38.8,10.6c-3.8,1-6.2,5.3-5.3,9.5
		c2.3,11.2,4,22.1,5.4,31.3c0.3,2.1,1.3,3.8,2.9,5c1.5,1.1,3.4,1.6,5.2,1.3l2.1-0.4c26.3-4.7,52.6-9.3,79-14c1.6-0.3,3-1.2,4.1-2.7
		c1.4-2,1.9-4.8,1.4-7.6c-2.2-11.2-4.9-23.1-8.2-36.5c-0.7-2.7-2.3-5-4.4-6.3C610.7,129.5,609.6,129.1,608.5,129.1z"/>
</g>
<g class="st0">
	<path d="M202.8,304.2v-5.7c2.6-0.1,4.5-0.3,5.5-0.5c1.7-0.4,3-1.1,4.1-2.2c0.7-0.8,1.3-1.8,1.6-3c0.2-0.8,0.3-1.3,0.3-1.7h7v42.4
		h-8.5v-29.3H202.8z"/>
</g>
<g>
	<path d="M197.8,277.5c0.3,0.2,0.9,0.4,1.4,0.4c0.8,0,1.1-0.4,1.1-0.9c0-0.5-0.3-0.8-1.1-1.1c-1-0.4-1.5-0.9-1.5-1.6
		c0-0.9,0.8-1.7,2-1.7c0.6,0,1.1,0.2,1.4,0.4l-0.3,0.8c-0.2-0.1-0.6-0.3-1.2-0.3c-0.6,0-1,0.4-1,0.8c0,0.5,0.3,0.7,1.1,1
		c1,0.4,1.5,0.9,1.5,1.8c0,1-0.8,1.7-2.2,1.7c-0.6,0-1.2-0.2-1.6-0.4L197.8,277.5z"/>
	<path d="M203.3,275.8c0,1.4,0.9,2,2,2c0.8,0,1.2-0.1,1.6-0.3l0.2,0.8c-0.4,0.2-1,0.4-1.9,0.4c-1.8,0-2.9-1.2-2.9-2.9s1-3.1,2.7-3.1
		c1.9,0,2.4,1.7,2.4,2.7c0,0.2,0,0.4,0,0.5H203.3z M206.4,275.1c0-0.7-0.3-1.7-1.5-1.7c-1.1,0-1.5,1-1.6,1.7H206.4z"/>
	<path d="M212.9,278.3c-0.3,0.1-0.9,0.3-1.7,0.3c-1.8,0-2.9-1.2-2.9-3c0-1.8,1.2-3.1,3.1-3.1c0.6,0,1.2,0.2,1.5,0.3l-0.2,0.8
		c-0.3-0.1-0.6-0.3-1.2-0.3c-1.3,0-2.1,1-2.1,2.2c0,1.3,0.9,2.2,2,2.2c0.6,0,1-0.2,1.3-0.3L212.9,278.3z"/>
	<path d="M215.6,271.1v1.7h1.5v0.8h-1.5v3.1c0,0.7,0.2,1.1,0.8,1.1c0.3,0,0.5,0,0.6-0.1l0,0.8c-0.2,0.1-0.5,0.1-0.9,0.1
		c-0.5,0-0.9-0.2-1.1-0.4c-0.3-0.3-0.4-0.8-0.4-1.5v-3.2h-0.9v-0.8h0.9v-1.4L215.6,271.1z"/>
	<path d="M219.4,271.1c0,0.4-0.3,0.6-0.7,0.6c-0.4,0-0.6-0.3-0.6-0.6c0-0.4,0.3-0.7,0.7-0.7C219.2,270.5,219.4,270.8,219.4,271.1z
		 M218.3,278.6v-5.8h1.1v5.8H218.3z"/>
	<path d="M226.3,275.6c0,2.1-1.5,3.1-2.9,3.1c-1.6,0-2.8-1.2-2.8-3c0-1.9,1.3-3.1,2.9-3.1C225.2,272.6,226.3,273.8,226.3,275.6z
		 M221.7,275.7c0,1.3,0.7,2.2,1.8,2.2c1,0,1.8-0.9,1.8-2.3c0-1-0.5-2.2-1.7-2.2C222.3,273.4,221.7,274.6,221.7,275.7z"/>
	<path d="M227.7,274.3c0-0.6,0-1.1,0-1.6h0.9l0.1,1h0c0.3-0.6,1-1.1,1.9-1.1c0.8,0,2.1,0.5,2.1,2.5v3.5h-1.1v-3.3
		c0-0.9-0.3-1.7-1.3-1.7c-0.7,0-1.2,0.5-1.4,1.1c0,0.1-0.1,0.3-0.1,0.5v3.5h-1.1V274.3z"/>
</g>
<g class="st0">
	<path d="M341.6,200.2c1.2-2.8,4-5.8,8.4-9c3.8-2.8,6.3-4.7,7.5-5.9c1.7-1.9,2.6-3.9,2.6-6.1c0-1.8-0.5-3.3-1.5-4.5
		c-1-1.2-2.4-1.8-4.3-1.8c-2.5,0-4.3,0.9-5.2,2.8c-0.5,1.1-0.8,2.8-0.9,5.2h-8.1c0.1-3.6,0.8-6.5,2-8.7c2.2-4.2,6.2-6.3,11.9-6.3
		c4.5,0,8.1,1.2,10.7,3.7c2.7,2.5,4,5.8,4,9.9c0,3.1-0.9,5.9-2.8,8.4c-1.2,1.6-3.3,3.4-6.1,5.4l-3.3,2.4c-2.1,1.5-3.5,2.6-4.3,3.2
		c-0.8,0.7-1.4,1.4-1.9,2.3h18.5v7.3h-29.1C339.7,205.5,340.3,202.7,341.6,200.2z"/>
</g>
<g>
	<path d="M337,152.6c0.3,0.2,0.9,0.4,1.4,0.4c0.8,0,1.1-0.4,1.1-0.9c0-0.5-0.3-0.8-1.1-1.1c-1-0.4-1.5-0.9-1.5-1.6
		c0-0.9,0.8-1.7,2-1.7c0.6,0,1.1,0.2,1.4,0.4l-0.3,0.8c-0.2-0.1-0.6-0.3-1.2-0.3c-0.6,0-1,0.4-1,0.8c0,0.5,0.3,0.7,1.1,1
		c1,0.4,1.5,0.9,1.5,1.8c0,1-0.8,1.7-2.2,1.7c-0.6,0-1.2-0.2-1.6-0.4L337,152.6z"/>
	<path d="M342.5,151c0,1.4,0.9,2,2,2c0.8,0,1.2-0.1,1.6-0.3l0.2,0.8c-0.4,0.2-1,0.4-1.9,0.4c-1.8,0-2.9-1.2-2.9-2.9s1-3.1,2.7-3.1
		c1.9,0,2.4,1.7,2.4,2.7c0,0.2,0,0.4,0,0.5H342.5z M345.5,150.3c0-0.7-0.3-1.7-1.5-1.7c-1.1,0-1.5,1-1.6,1.7H345.5z"/>
	<path d="M352,153.5c-0.3,0.1-0.9,0.3-1.7,0.3c-1.8,0-2.9-1.2-2.9-3c0-1.8,1.2-3.1,3.1-3.1c0.6,0,1.2,0.2,1.5,0.3l-0.2,0.8
		c-0.3-0.1-0.6-0.3-1.2-0.3c-1.3,0-2.1,1-2.1,2.2c0,1.3,0.9,2.2,2,2.2c0.6,0,1-0.2,1.3-0.3L352,153.5z"/>
	<path d="M354.7,146.2v1.7h1.5v0.8h-1.5v3.1c0,0.7,0.2,1.1,0.8,1.1c0.3,0,0.5,0,0.6-0.1l0,0.8c-0.2,0.1-0.5,0.1-0.9,0.1
		c-0.5,0-0.9-0.2-1.1-0.4c-0.3-0.3-0.4-0.8-0.4-1.5v-3.2h-0.9v-0.8h0.9v-1.4L354.7,146.2z"/>
	<path d="M358.6,146.3c0,0.4-0.3,0.6-0.7,0.6c-0.4,0-0.6-0.3-0.6-0.6c0-0.4,0.3-0.7,0.7-0.7C358.3,145.6,358.6,145.9,358.6,146.3z
		 M357.4,153.7v-5.8h1.1v5.8H357.4z"/>
	<path d="M365.4,150.8c0,2.1-1.5,3.1-2.9,3.1c-1.6,0-2.8-1.2-2.8-3c0-1.9,1.3-3.1,2.9-3.1C364.3,147.8,365.4,149,365.4,150.8z
		 M360.8,150.8c0,1.3,0.7,2.2,1.8,2.2c1,0,1.8-0.9,1.8-2.3c0-1-0.5-2.2-1.7-2.2C361.4,148.6,360.8,149.7,360.8,150.8z"/>
	<path d="M366.8,149.5c0-0.6,0-1.1,0-1.6h0.9l0.1,1h0c0.3-0.6,1-1.1,1.9-1.1c0.8,0,2.1,0.5,2.1,2.5v3.5h-1.1v-3.3
		c0-0.9-0.3-1.7-1.3-1.7c-0.7,0-1.2,0.5-1.4,1.1c0,0.1-0.1,0.3-0.1,0.5v3.5h-1.1V149.5z"/>
</g>
<g class="st0">
	<path d="M485.8,320.4c0,1.7,0.3,3.1,0.8,4.2c1,2,2.8,3.1,5.5,3.1c1.6,0,3.1-0.6,4.3-1.7c1.2-1.1,1.8-2.7,1.8-4.8
		c0-2.8-1.1-4.7-3.4-5.6c-1.3-0.5-3.3-0.8-6.1-0.8v-6c2.7,0,4.6-0.3,5.7-0.8c1.8-0.8,2.8-2.5,2.8-5c0-1.6-0.5-2.9-1.4-3.9
		c-0.9-1-2.3-1.5-4-1.5c-2,0-3.4,0.6-4.3,1.9c-0.9,1.2-1.4,2.9-1.3,5h-7.8c0.1-2.1,0.4-4.1,1.1-6c0.7-1.7,1.8-3.2,3.2-4.6
		c1.1-1,2.4-1.8,3.9-2.3c1.5-0.5,3.3-0.8,5.5-0.8c4.1,0,7.3,1,9.8,3.1c2.5,2.1,3.7,4.9,3.7,8.4c0,2.5-0.7,4.6-2.2,6.3
		c-0.9,1.1-1.9,1.8-2.9,2.2c0.8,0,1.9,0.7,3.3,2c2.1,2,3.2,4.7,3.2,8.1c0,3.6-1.2,6.7-3.7,9.5s-6.2,4.1-11,4.1c-6,0-10.2-2-12.5-5.9
		c-1.2-2.1-1.9-4.8-2-8.2H485.8z"/>
</g>
<g>
	<path d="M475.3,277.5c0.3,0.2,0.9,0.4,1.4,0.4c0.8,0,1.1-0.4,1.1-0.9c0-0.5-0.3-0.8-1.1-1.1c-1-0.4-1.5-0.9-1.5-1.6
		c0-0.9,0.8-1.7,2-1.7c0.6,0,1.1,0.2,1.4,0.4l-0.3,0.8c-0.2-0.1-0.6-0.3-1.2-0.3c-0.6,0-1,0.4-1,0.8c0,0.5,0.3,0.7,1.1,1
		c1,0.4,1.5,0.9,1.5,1.8c0,1-0.8,1.7-2.2,1.7c-0.6,0-1.2-0.2-1.6-0.4L475.3,277.5z"/>
	<path d="M480.8,275.8c0,1.4,0.9,2,2,2c0.8,0,1.2-0.1,1.6-0.3l0.2,0.8c-0.4,0.2-1,0.4-1.9,0.4c-1.8,0-2.9-1.2-2.9-2.9s1-3.1,2.7-3.1
		c1.9,0,2.4,1.7,2.4,2.7c0,0.2,0,0.4,0,0.5H480.8z M483.8,275.1c0-0.7-0.3-1.7-1.5-1.7c-1.1,0-1.5,1-1.6,1.7H483.8z"/>
	<path d="M490.3,278.3c-0.3,0.1-0.9,0.3-1.7,0.3c-1.8,0-2.9-1.2-2.9-3c0-1.8,1.2-3.1,3.1-3.1c0.6,0,1.2,0.2,1.5,0.3l-0.2,0.8
		c-0.3-0.1-0.6-0.3-1.2-0.3c-1.3,0-2.1,1-2.1,2.2c0,1.3,0.9,2.2,2,2.2c0.6,0,1-0.2,1.3-0.3L490.3,278.3z"/>
	<path d="M493,271.1v1.7h1.5v0.8H493v3.1c0,0.7,0.2,1.1,0.8,1.1c0.3,0,0.5,0,0.6-0.1l0,0.8c-0.2,0.1-0.5,0.1-0.9,0.1
		c-0.5,0-0.9-0.2-1.1-0.4c-0.3-0.3-0.4-0.8-0.4-1.5v-3.2H491v-0.8h0.9v-1.4L493,271.1z"/>
	<path d="M496.9,271.1c0,0.4-0.3,0.6-0.7,0.6c-0.4,0-0.6-0.3-0.6-0.6c0-0.4,0.3-0.7,0.7-0.7C496.6,270.5,496.9,270.8,496.9,271.1z
		 M495.7,278.6v-5.8h1.1v5.8H495.7z"/>
	<path d="M503.7,275.6c0,2.1-1.5,3.1-2.9,3.1c-1.6,0-2.8-1.2-2.8-3c0-1.9,1.3-3.1,2.9-3.1C502.6,272.6,503.7,273.8,503.7,275.6z
		 M499.1,275.7c0,1.3,0.7,2.2,1.8,2.2c1,0,1.8-0.9,1.8-2.3c0-1-0.5-2.2-1.7-2.2S499.1,274.6,499.1,275.7z"/>
	<path d="M505.1,274.3c0-0.6,0-1.1,0-1.6h0.9l0.1,1h0c0.3-0.6,1-1.1,1.9-1.1c0.8,0,2.1,0.5,2.1,2.5v3.5H509v-3.3
		c0-0.9-0.3-1.7-1.3-1.7c-0.7,0-1.2,0.5-1.4,1.1c0,0.1-0.1,0.3-0.1,0.5v3.5h-1.1V274.3z"/>
</g>
</svg>
