<?xml version="1.0" encoding="utf-8"?>
<!-- Generator: Adobe Illustrator 24.2.1, SVG Export Plug-In . SVG Version: 6.00 Build 0)  -->
<svg version="1.1" xmlns="http://www.w3.org/2000/svg" xmlns:xlink="http://www.w3.org/1999/xlink" x="0px" y="0px"
	 viewBox="0 0 710.7 480.7" style="enable-background:new 0 0 710.7 480.7;" xml:space="preserve">
<style type="text/css">
	.st0{fill:none;stroke:#000000;stroke-miterlimit:10;}
	.st1{font-family:'Helvetica-Bold';}
	.st2{font-size:59.9182px;}
</style>
<g id="Layer_1">
	<path class="st0" d="M192.4,134.3c-8.4-27.2-16.7-54.4-25.1-81.6c-2-6.3,2.8-13.4,10.6-15.7c10.8-3.1,21.7-5.8,32.6-8.3
		c7.9-1.8,15.5,2.2,16.8,8.7c5.7,27.9,11.4,55.8,17.1,83.7c1.3,6.5-3,12.9-9.5,14.4c-9.1,2.1-18.1,4.4-27.1,6.9
		C201.2,144.1,194.3,140.6,192.4,134.3z"/>
	<path class="st0" d="M246.4,120.6c-5.6-27.9-11.2-55.8-16.8-83.7c-1.3-6.5,4-13.1,12-14.5c11-1.9,22-3.6,33.1-5
		c8-1,15.1,3.7,15.7,10.3c2.9,28.3,5.8,56.6,8.7,84.9c0.6,6.6-4.2,12.5-10.9,13.3c-9.2,1.1-18.4,2.5-27.5,4.2
		C254.1,131.3,247.7,127.1,246.4,120.6z"/>
	<path class="st0" d="M301.2,112.4c-2.8-28.3-5.6-56.7-8.3-85c-0.7-6.6,5.3-12.6,13.4-13.2c11.1-0.8,22.2-1.4,33.3-1.7
		c8.1-0.2,14.6,5.2,14.6,11.8c0.1,28.5,0.1,56.9,0.2,85.4c0,6.6-5.4,12-12.1,12.2c-9.3,0.2-18.5,0.7-27.7,1.4
		C307.8,123.8,301.8,119,301.2,112.4z"/>
	<path class="st0" d="M356.4,109.8c0.1-28.5,0.1-56.9,0.2-85.4c0-6.6,6.5-12,14.6-11.8c11.1,0.3,22.2,0.8,33.3,1.7
		c8.1,0.6,14.1,6.6,13.4,13.2c-2.8,28.3-5.6,56.7-8.3,85c-0.7,6.6-6.6,11.4-13.3,10.9c-9.2-0.7-18.5-1.2-27.7-1.4
		C361.8,121.8,356.4,116.4,356.4,109.8z"/>
	<path class="st0" d="M411.6,112.6c2.9-28.3,5.8-56.6,8.7-84.9c0.6-6.6,7.7-11.3,15.7-10.3c11.1,1.4,22.1,3,33.1,5
		c8,1.4,13.4,8,12,14.5c-5.6,27.9-11.2,55.8-16.8,83.7c-1.3,6.5-7.7,10.7-14.4,9.5c-9.1-1.6-18.3-3-27.5-4.2
		C415.8,125.1,411,119.2,411.6,112.6z"/>
	<path class="st0" d="M466.4,121c5.7-27.9,11.4-55.8,17.1-83.7c1.3-6.5,8.8-10.5,16.8-8.7c10.9,2.5,21.8,5.3,32.6,8.3
		c7.9,2.2,12.6,9.3,10.6,15.7c-8.4,27.2-16.7,54.4-25.1,81.6c-2,6.3-8.8,9.8-15.3,8c-9-2.5-18-4.9-27.1-6.9
		C469.4,133.9,465.1,127.5,466.4,121z"/>
	<path class="st0" d="M188,448.3c-30.3,8.2-60.6,16.5-90.9,24.7c-4.8,1.3-9.6-1.9-10.6-7.2c-2.5-12.3-4.7-24.6-6.5-37
		c-0.8-5.3,2.4-10.4,7.2-11.2c30.1-5.6,60.2-11.2,90.2-16.7c4.7-0.9,9.2,2,10.1,6.5c2.1,10.3,4.4,20.5,7,30.7
		C195.6,442.4,192.7,447,188,448.3z"/>
	<path class="st0" d="M177,398.9c-30.1,5.5-60.1,11-90.2,16.4c-4.7,0.9-9.1-2.8-9.8-8.1c-1.5-12.4-2.7-24.8-3.6-37.3
		c-0.4-5.4,3.2-10.1,7.8-10.5c29.6-2.9,59.3-5.8,88.9-8.6c4.7-0.4,8.8,2.8,9.4,7.3c1.3,10.4,2.8,20.8,4.6,31.1
		C184.9,393.7,181.7,398,177,398.9z"/>
	<path class="st0" d="M170,348.9c-29.6,2.8-59.2,5.6-88.8,8.3c-4.7,0.4-8.7-3.5-8.9-8.9c-0.5-12.4-0.7-24.9-0.6-37.3
		c0-5.4,3.8-9.7,8.4-9.8c29-0.3,58-0.5,86.9-0.8c4.6,0,8.3,3.6,8.5,8.1c0.4,10.5,1.1,21,2.1,31.4C178,344.5,174.6,348.5,170,348.9z"
		/>
	<path class="st0" d="M166.9,298.6c-28.9,0.2-57.9,0.3-86.8,0.5c-4.6,0-8.1-4.3-7.9-9.7c0.5-12.4,1.2-24.8,2.3-37.2
		c0.5-5.3,4.5-9.4,8.9-9c28.1,2.3,56.2,4.6,84.4,6.8c4.4,0.4,7.8,4.3,7.6,8.8c-0.4,10.5-0.5,21-0.4,31.5
		C175.1,294.9,171.5,298.6,166.9,298.6z"/>
	<path class="st0" d="M167.8,248.1c-28.1-2.4-56.2-4.7-84.2-7.1c-4.4-0.4-7.6-5-6.9-10.3c1.4-12.4,3.2-24.7,5.3-36.9
		c0.9-5.3,5.1-9,9.4-8.2c27.1,4.7,54.1,9.4,81.2,14.1c4.2,0.8,7.2,5,6.7,9.5c-1.2,10.5-2.2,21-2.9,31.5
		C176,245.1,172.3,248.5,167.8,248.1z"/>
	<path class="st0" d="M172.8,197.8c-27-4.8-54-9.6-81.1-14.4c-4.2-0.7-6.9-5.6-5.9-10.9c2.4-12.2,5.2-24.4,8.2-36.5
		c1.3-5.2,5.7-8.5,9.8-7.4c25.8,7,51.6,14.1,77.4,21.1c4.1,1.1,6.6,5.6,5.7,10.1c-2.1,10.4-3.8,20.8-5.4,31.3
		C180.9,195.5,177,198.5,172.8,197.8z"/>
	<g>
		<path class="st0" d="M522.7,448.9c30.3,8.2,60.6,16.5,90.9,24.7c4.8,1.3,9.6-1.9,10.6-7.2c2.5-12.3,4.7-24.6,6.5-37
			c0.8-5.3-2.4-10.4-7.2-11.2c-30.1-5.6-60.2-11.2-90.2-16.7c-4.7-0.9-9.2,2-10.1,6.5c-2.1,10.3-4.4,20.5-7,30.7
			C515.1,443,518,447.6,522.7,448.9z"/>
		<path class="st0" d="M533.7,399.6c30.1,5.5,60.1,11,90.2,16.4c4.7,0.9,9.1-2.8,9.8-8.1c1.5-12.4,2.7-24.8,3.6-37.3
			c0.4-5.4-3.2-10.1-7.8-10.5c-29.6-2.9-59.3-5.8-88.9-8.6c-4.7-0.4-8.8,2.8-9.4,7.3c-1.3,10.4-2.8,20.8-4.6,31.1
			C525.8,394.4,529,398.7,533.7,399.6z"/>
		<path class="st0" d="M540.7,349.6c29.6,2.8,59.2,5.6,88.8,8.3c4.7,0.4,8.7-3.5,8.9-8.9c0.5-12.4,0.7-24.9,0.6-37.3
			c0-5.4-3.8-9.7-8.4-9.8c-29-0.3-58-0.5-86.9-0.8c-4.5,0-8.3,3.6-8.5,8.1c-0.4,10.5-1.1,21-2.1,31.4
			C532.7,345.1,536.1,349.1,540.7,349.6z"/>
		<path class="st0" d="M543.8,299.3c28.9,0.2,57.9,0.3,86.8,0.5c4.6,0,8.1-4.3,7.9-9.7c-0.5-12.4-1.2-24.8-2.3-37.2
			c-0.5-5.3-4.5-9.4-8.9-9c-28.1,2.3-56.2,4.6-84.4,6.8c-4.4,0.4-7.8,4.3-7.6,8.8c0.4,10.5,0.5,21,0.4,31.5
			C535.6,295.5,539.2,299.2,543.8,299.3z"/>
		<path class="st0" d="M542.9,248.8c28.1-2.4,56.2-4.7,84.2-7.1c4.4-0.4,7.6-5,6.9-10.3c-1.4-12.4-3.2-24.7-5.3-36.9
			c-0.9-5.3-5.1-9-9.4-8.2c-27.1,4.7-54.1,9.4-81.2,14.1c-4.2,0.8-7.2,5-6.7,9.5c1.2,10.5,2.2,21,2.9,31.5
			C534.7,245.8,538.4,249.1,542.9,248.8z"/>
		<path class="st0" d="M537.9,198.4c27-4.8,54-9.6,81.1-14.4c4.2-0.7,6.9-5.6,5.9-10.9c-2.4-12.2-5.2-24.4-8.2-36.5
			c-1.3-5.2-5.7-8.5-9.8-7.4c-25.8,7-51.6,14.1-77.4,21.1c-4.1,1.1-6.6,5.6-5.7,10.1c2.1,10.4,3.8,20.8,5.4,31.3
			C529.8,196.1,533.7,199.1,537.9,198.4z"/>
	</g>
	<text transform="matrix(1 0 0 1 198.6152 313.4097)" class="st1 st2">1</text>
	<text transform="matrix(1 0 0 1 475.6699 313.4097)" class="st1 st2">3</text>
	<text transform="matrix(1 0 0 1 338.6909 188.5688)" class="st1 st2">2</text>
</g>
<g id="Layer_2">
</g>
</svg>
